Coordinates
version=1
nRows=14
nColumns=36
inDegrees=yes

Units are S.I. units (second, meters, Newtons, ...)
If the header above contains a line with 'inDegrees', this indicates whether rotational values are in degrees (yes) or radians (no).

endheader
time	pelvis_tilt	pelvis_list	pelvis_rotation	pelvis_tx	pelvis_ty	pelvis_tz	hip_flexion_r	hip_adduction_r	hip_rotation_r	knee_angle_r	knee_angle_r_beta	ankle_angle_r	subtalar_angle_r	mtp_angle_r	hip_flexion_l	hip_adduction_l	hip_rotation_l	knee_angle_l	knee_angle_l_beta	ankle_angle_l	subtalar_angle_l	mtp_angle_l	lumbar_extension	lumbar_bending	lumbar_rotation	arm_flex_r	arm_add_r	arm_rot_r	elbow_flex_r	pro_sup_r	arm_flex_l	arm_add_l	arm_rot_l	elbow_flex_l	pro_sup_l
      0.00000000	     -1.63720834	     -0.92102436	     -6.72802154	      0.41836612	      1.27616022	     -0.26281309	      0.49469417	      0.60654928	     -1.21081875	      5.58711197	      0.09751350	     21.79355857	      6.79188861	     -6.99059638	     -0.70267334	     -2.27557371	     -6.61087397	      6.38213940	      0.11138935	     21.53898403	      6.10421456	     -6.99059638	     -2.93254209	      1.56640504	      3.17915487	      4.50499877	    -10.79996007	      6.54648305	     17.00266205	     93.88027596	     -0.39116531	     -9.99611354	      0.40982239	     19.74496747	     92.62144605
      0.01666670	     -1.87518332	     -1.23902648	     -7.24202561	      0.41786425	      1.27410618	     -0.26364428	      0.04813922	      1.20253671	     -1.77758481	      4.38660228	      0.07656065	     22.90239079	      7.37486511	     -7.02160800	     -0.95633168	     -2.48090247	     -7.96783516	      5.66782492	      0.09892221	     21.20623376	      6.31650119	     -7.02160800	     -3.59015401	      1.88319143	      3.93620929	      4.65470374	    -11.12452238	      7.09630885	     16.80357712	     93.77089516	     -0.47035415	     -9.66577842	      0.07328375	     19.93373840	     92.07976112
      0.03333330	     -1.71370554	     -1.32970849	     -7.01964951	      0.41514410	      1.27538649	     -0.26449659	      0.07943592	      1.35826596	     -2.80617675	      4.89284902	      0.08539633	     23.21899187	      7.75655214	     -7.33807855	     -1.08044634	     -2.53750652	     -8.61139293	      5.50921111	      0.09615387	     21.51758851	      6.94167258	     -7.33807855	     -4.71737066	      1.97164976	      3.27180794	      5.68362808	    -11.40904106	      9.27086508	     16.41358994	     98.29154462	     -0.17735070	     -9.34335156	     -3.07603400	     20.06552387	     95.42741783
      0.05000000	     -1.64402856	     -1.16837796	     -6.86346829	      0.41204316	      1.27487652	     -0.26539733	      0.60726043	      1.06309747	     -4.33952748	      5.95808320	      0.10398817	     24.02835934	      8.20491210	     -7.39325153	     -0.74313507	     -2.35297455	     -9.17283317	      6.05845435	      0.10573998	     21.96775120	      7.24105376	     -7.39325153	     -5.53981409	      1.81961558	      3.00792824	      6.56849907	    -11.59026357	     11.44676869	     16.09373285	     97.15506011	      0.41136223	     -9.41638987	     -2.06704982	     19.89471060	     94.12286220
      0.06666670	     -1.21528223	     -1.01891846	     -7.07012145	      0.40914042	      1.27537945	     -0.26611759	      0.76512051	      0.78909117	     -5.02664850	      6.96615634	      0.12158236	     24.68032685	      8.16087887	     -7.44505825	     -0.78764369	     -2.16062417	    -10.03876347	      6.73804025	      0.11760099	     22.46536319	      7.97759230	     -7.44505825	     -6.76765681	      1.59810201	      2.88668922	      7.49353426	    -11.86635898	     14.77026440	     16.08737011	     95.41112727	      1.04605494	     -9.65920227	     -0.15153911	     20.14494138	     91.79976380
      0.08333330	     -0.44541756	     -0.75450109	     -7.44876711	      0.41505403	      1.27606949	     -0.27008415	      0.37815932	      0.24801811	     -5.44279606	      7.82387672	      0.13655241	     25.32289533	      8.29097596	     -7.44599071	     -1.54362689	     -1.67114313	    -10.44790724	      6.95696341	      0.12142192	     22.43127283	      7.97605894	     -7.44599071	     -7.97216210	      1.27848385	      3.27638086	      7.82877935	    -11.95393323	     14.63104704	     16.10081671	     95.69522377	      1.44606925	     -9.52629506	     -0.52863209	     20.35387285	     92.02805339
      0.10000000	      0.38071334	     -0.62231103	     -7.69438576	      0.41302663	      1.27690002	     -0.27030250	     -0.29568440	     -0.09942918	     -5.67227418	      8.20677391	      0.14323523	     25.51494452	      8.34256974	     -7.46384580	     -2.47552185	     -1.30574539	    -10.72762415	      6.99220929	      0.12203707	     22.27989305	      8.26457646	     -7.46384580	     -9.27342991	      1.01595483	      3.34546301	      8.12910211	    -11.97485102	     13.17265959	     16.37067093	    101.18900509	      1.53361458	     -9.21010672	     -3.88238207	     21.05429209	     97.76152616
      0.11666670	      0.99739261	     -0.45606865	     -7.80013737	      0.41146806	      1.27731899	     -0.27036719	     -0.79544065	     -0.41115804	     -5.70799368	      8.51878038	      0.14868077	     25.68537120	      8.23758990	     -7.47013688	     -3.11788321	     -0.96055791	    -10.75523143	      7.03871735	      0.12284879	     22.24015689	      8.40178738	     -7.47013688	    -10.18750955	      0.74693130	      3.47221083	      8.36222305	    -11.97613367	     13.54267435	     16.19941335	     99.33629136	      1.89078593	     -9.21094370	     -3.59553402	     20.90462457	     95.86827360
      0.13333330	      1.28603328	     -0.31630129	     -7.84120815	      0.40196385	      1.27727912	     -0.26682443	     -0.88102286	     -0.56618623	     -5.54291450	      8.82201164	      0.15397315	     25.78779568	      7.94644957	     -7.47052276	     -3.27616811	     -0.74412117	    -10.69242778	      7.24452368	      0.12644079	     22.13255324	      8.42152461	     -7.47052276	    -10.89899855	      0.45191422	      3.55172698	      8.58344510	    -11.91414330	     13.62366261	     16.40361635	     99.47328396	      2.29102828	     -9.37709998	     -3.53101272	     21.14760621	     96.05343665
      0.15000000	      1.58975626	     -0.14372429	     -7.84987960	      0.40958354	      1.27747688	     -0.27033193	     -1.14635737	     -0.79958013	     -5.46641882	      8.95659372	      0.15632205	     25.84309794	      7.72059181	     -7.47080830	     -3.58320785	     -0.46046559	    -10.56269653	      7.29050424	      0.12724330	     22.08335671	      8.39413585	     -7.47080830	    -11.43823651	      0.18534670	      3.58294841	      8.60715934	    -11.88786795	     13.71412724	     16.57002798	     99.59069866	      2.41203115	     -9.42985346	     -3.45595194	     21.26786585	     96.21299457
      0.16666670	      1.99459403	     -0.12304257	     -7.81629863	      0.40881861	      1.27772007	     -0.27033438	     -1.65474493	     -0.84863422	     -5.28676653	      8.88386487	      0.15505269	     25.76732891	      7.36704906	     -7.47398398	     -4.09961673	     -0.31319231	    -10.29079740	      7.12272003	      0.12431492	     21.88998424	      8.16359715	     -7.47398398	    -12.19942730	      0.03264453	      3.54297412	      8.46173771	    -12.00972386	     13.91815100	     17.41582054	     98.35829548	      2.21833554	     -9.53622024	     -3.23620475	     22.30338348	     94.73159974
      0.18333330	      2.26127052	     -0.05940129	     -7.72157106	      0.40837520	      1.27770777	     -0.27033396	     -1.99102489	     -0.95533763	     -5.37421527	      8.91030160	      0.15551410	     25.85990279	      7.32163602	     -7.47649995	     -4.46088809	     -0.15459503	    -10.19059961	      7.11219542	      0.12413123	     21.76950523	      8.25013644	     -7.47649995	    -12.70424869	     -0.10385613	      3.43269888	      8.29433691	    -12.11361078	     14.24128464	     18.10376387	     97.25966145	      2.09854462	     -9.62292908	     -2.97345563	     22.85615085	     93.47614066
      0.20000000	      2.25991958	      0.00431611	     -7.52924345	      0.40791628	      1.27744112	     -0.27051929	     -2.02860774	     -1.01049872	     -5.64044795	      8.93146758	      0.15588352	     25.99925317	      7.44079628	     -7.47946737	     -4.37344564	     -0.09357372	     -9.91058155	      7.17957336	      0.12530719	     21.86672236	      8.08067341	     -7.47946737	    -12.64195646	     -0.12667539	      3.38207819	      8.41970057	    -12.23229231	     15.55364823	     17.59573117	     99.65711853	      2.83497812	     -9.72854280	     -1.64977790	     21.48990442	     96.25738378
      0.21666670	      2.41548806	      0.04893634	     -7.36924410	      0.40757100	      1.27748220	     -0.27054344	     -2.24408293	     -1.06063832	     -5.83026261	      8.92438660	      0.15575993	     26.07185307	      7.51727024	     -7.48267668	     -4.56958833	     -0.00006283	     -9.74878388	      7.10794965	      0.12405712	     21.74320669	      8.14056790	     -7.48267668	    -12.98548492	     -0.18846455	      3.17044928	      8.29228672	    -12.28004126	     15.36032932	     18.23547603	     99.05100516	      2.81713995	     -9.77056567	     -1.58104851	     22.07416319	     95.85398972
